<svg width="114" height="114" viewBox="0 0 114 114" fill="none" xmlns="http://www.w3.org/2000/svg">
<path d="M71.9617 53.0932L72.7078 52.2068C74.7348 49.7985 78.2783 49.3661 80.825 51.2163L104.468 68.3936C107.161 70.3503 107.746 74.1253 105.772 76.8057L90.7598 97.1904C88.8203 99.8241 85.1287 100.419 82.4599 98.5282L58.9602 81.8785C56.3603 80.0364 55.6537 76.4834 57.351 73.7867L58.1734 72.48M74.6197 69.8751L39.6279 44.4521" stroke="#6568A5" stroke-width="8" stroke-miterlimit="7.6613" stroke-linecap="round" stroke-linejoin="round"/>
<path d="M42.2327 60.8984L41.4867 61.7848C39.4597 64.1931 35.9161 64.6255 33.3695 62.7753L9.72689 45.5979C7.0338 43.6413 6.44837 39.8663 8.42235 37.1859L23.4346 16.8011C25.3742 14.1675 29.0657 13.5725 31.7345 15.4633L55.2342 32.1131C57.8341 33.9552 58.5407 37.5082 56.8435 40.2048L56.021 41.5116M39.5747 44.1164L74.5666 69.5395" stroke="#464FFA" stroke-width="8" stroke-miterlimit="7.6613" stroke-linecap="round" stroke-linejoin="round"/>
</svg>
